<?xml version="1.0" standalone="no"?>
<!DOCTYPE svg PUBLIC "-//W3C//DTD SVG 20010904//EN"
 "http://www.w3.org/TR/2001/REC-SVG-20010904/DTD/svg10.dtd">
<svg version="1.0" xmlns="http://www.w3.org/2000/svg"
 width="1080.000000pt" height="1080.000000pt" viewBox="0 0 1080.000000 1080.000000"
 preserveAspectRatio="xMidYMid meet">
<metadata>
Created by potrace 1.14, written by Peter Selinger 2001-2017
</metadata>
<g transform="translate(0.000000,1080.000000) scale(0.100000,-0.100000)"
fill="#000000" stroke="none">
<path d="M4568 10485 c-2 -1 -23 -5 -48 -9 -556 -72 -1041 -472 -1224 -1008
-71 -207 -78 -269 -82 -672 -2 -197 -5 -360 -7 -362 -2 -2 -251 -5 -553 -7
-601 -4 -575 -2 -679 -66 -76 -47 -164 -161 -182 -235 -16 -70 -18 -355 -18
-2406 0 -1765 3 -2274 12 -2305 40 -129 156 -247 281 -285 67 -20 74 -20 3157
-18 l3090 3 66 32 c112 54 190 142 229 258 21 64 21 99 5 805 -3 129 -8 323
-10 430 -5 224 -13 600 -20 875 -2 105 -7 314 -10 465 -3 151 -8 356 -10 455
-3 99 -7 286 -9 415 -3 130 -8 330 -10 445 -3 116 -8 332 -11 480 -3 149 -10
293 -16 320 -35 158 -175 296 -329 323 -30 5 -194 10 -365 10 -170 1 -423 1
-561 2 l-250 0 -1 308 c0 278 -6 453 -17 471 -3 3 -7 27 -11 51 -28 202 -159
484 -310 670 -39 48 -200 207 -240 236 -22 16 -42 31 -45 34 -3 3 -39 27 -80
54 -103 65 -216 118 -340 160 -92 30 -133 41 -249 63 -14 3 -107 6 -206 8
-172 3 -256 -5 -361 -34 -19 -5 -52 -5 -80 1 -27 5 -60 11 -74 14 -14 2 -47 8
-74 13 -43 8 -350 14 -358 6z m-129 -428 c-222 -215 -393 -542 -434 -832 -4
-27 -10 -59 -12 -70 -3 -11 -7 -166 -9 -345 -2 -179 -4 -337 -4 -352 l0 -28
-210 0 c-161 0 -210 3 -211 13 -4 62 0 579 5 637 45 479 394 899 851 1020 39
11 75 19 80 19 6 1 -20 -28 -56 -62z m1441 20 c336 -117 601 -382 723 -723 14
-38 28 -86 31 -105 3 -18 8 -45 11 -59 4 -14 8 -36 11 -50 3 -14 6 -179 8
-367 l3 -343 -211 0 -211 0 -1 303 c-1 300 -7 425 -24 502 -5 22 -11 54 -14
70 -9 46 -41 154 -65 215 -80 201 -189 368 -343 524 -37 38 -68 70 -68 72 0 7
69 -10 150 -39z m-610 -70 c41 -22 104 -60 140 -86 74 -52 219 -194 246 -240
10 -17 22 -31 26 -31 4 0 8 -7 8 -15 0 -8 5 -15 10 -15 6 0 10 -4 10 -9 0 -5
16 -35 35 -67 60 -99 105 -230 141 -409 3 -16 7 -182 9 -367 l3 -338 -785 0
-785 0 5 353 c2 193 7 363 10 377 4 14 12 50 18 80 42 203 171 426 340 585
105 100 245 190 361 233 61 23 73 20 208 -51z"/>
<path d="M5162 1235 l0 -555 116 -1 c226 -2 316 2 391 16 113 22 201 71 242
135 43 67 54 185 24 258 -22 54 -101 125 -166 150 l-50 18 48 25 c57 29 118
87 137 131 8 20 13 61 12 104 -1 60 -7 80 -31 120 -42 67 -107 110 -200 134
-67 17 -111 20 -301 20 l-222 0 0 -555z m421 360 c49 -21 71 -160 33 -217 -22
-33 -78 -55 -136 -53 l-45 1 -3 141 -3 142 28 3 c32 3 99 -6 126 -17z m12
-461 c41 -19 65 -63 71 -127 9 -90 -43 -144 -142 -148 -104 -3 -94 -18 -94
145 0 130 2 145 18 148 32 7 117 -4 147 -18z"/>
<path d="M4215 1506 c-145 -35 -248 -132 -292 -275 -26 -86 -23 -256 6 -343
51 -152 184 -230 375 -222 73 4 208 34 261 60 l34 16 -15 46 c-8 26 -19 63
-24 84 l-10 36 -63 -20 c-34 -10 -98 -22 -142 -25 -72 -5 -83 -3 -108 17 -30
24 -61 76 -49 83 4 3 28 8 54 11 200 27 343 136 361 276 6 49 -19 137 -50 178
-55 73 -212 109 -338 78z m115 -191 c51 -61 -20 -163 -124 -179 l-39 -6 7 51
c8 59 37 123 63 138 27 15 79 13 93 -4z"/>
<path d="M2696 1502 c-16 -4 -17 -27 -14 -330 3 -319 4 -328 26 -374 49 -98
122 -134 252 -125 86 5 133 24 180 68 l31 30 32 -32 c49 -50 106 -71 185 -68
248 9 367 142 399 444 9 87 8 239 -1 325 l-7 65 -117 -2 c-64 -1 -123 -2 -130
-2 -10 -1 -12 -13 -6 -53 21 -159 6 -449 -28 -533 -26 -65 -76 -79 -112 -32
-20 28 -21 37 -19 323 1 221 -1 294 -10 295 -54 3 -238 1 -242 -2 -2 -3 -5
-101 -6 -219 -2 -309 -17 -387 -81 -418 -32 -15 -50 -9 -70 26 -15 24 -17 68
-18 317 0 159 -2 291 -4 293 -5 5 -217 8 -240 4z"/>
<path d="M6109 1500 l-24 -5 0 -305 c1 -168 5 -321 9 -340 29 -127 119 -189
257 -177 90 8 161 39 208 94 l39 44 17 -44 c9 -24 27 -56 39 -72 l23 -28 89
27 c49 15 94 29 101 31 8 3 3 23 -17 62 -45 88 -56 180 -55 464 l0 249 -32 1
c-43 1 -199 1 -216 0 -9 -1 -12 -51 -12 -218 1 -236 -4 -284 -36 -349 -22 -46
-71 -77 -106 -68 -41 11 -47 50 -47 350 0 186 -4 284 -11 285 -56 3 -207 3
-226 -1z"/>
<path d="M6999 1490 c-4 -68 0 -593 4 -621 15 -89 52 -143 121 -175 108 -50
264 -20 348 68 34 35 38 37 47 20 17 -32 8 -154 -14 -184 -43 -58 -140 -67
-281 -26 l-80 24 -27 -91 c-15 -49 -27 -95 -27 -102 0 -22 167 -65 275 -70
186 -10 304 49 364 181 41 90 42 195 3 351 -26 107 -27 117 -25 373 1 238 0
262 -15 263 -58 3 -234 0 -238 -4 -2 -2 -5 -104 -5 -226 -2 -275 -12 -328 -72
-383 -50 -46 -102 -25 -112 45 -4 23 -7 161 -8 306 l-2 263 -128 2 c-106 1
-127 -1 -128 -14z"/>
</g>
</svg>
